<mxfile host="65bd71144e">
    <diagram id="IIKqKUnTTHNCJptoiOkN" name="Page-1">
        <mxGraphModel dx="1120" dy="899" grid="1" gridSize="10" guides="1" tooltips="1" connect="1" arrows="1" fold="1" page="1" pageScale="1" pageWidth="850" pageHeight="1100" math="0" shadow="0">
            <root>
                <mxCell id="0"/>
                <mxCell id="1" parent="0"/>
                <mxCell id="3" value="" style="shape=stencil(lVjZctswDPwav2JIgATJ5zT9j8zEqT117YzjXn9fqB66JiRtmjdF2SVxLA55Iw9vu6fX7YbD2+V8+rr9uX++7DbyacO8P+625/3FnjbyuJGHl9N5++V8+n58vv79+jQhp6dvpx/TCb+uvKgU0sTi8Pv6RpRS/Pvm85Vw2B/vCI1UB3yKJGkdn6i2EV8p1nW8kOQBnwvlto7PlEf7tVHO6/jI3b1OqNxDsEiwG9J4Q2OSADxmajwScEiVKWZ/gwKTSushufkQiQtIWiQdb9BECqJqFtc6pk1JkSxmeZZAAdxQC/GYh1hIGTide0xuTlNBUY1UZXSBIhKq6XLEC6kAoVpSw6hUYqQjczg7+yPIGUcK4/kxYqEGSs0T0A2xUdMZAYTUCGlURQxU8Q0xeEJChErVFVu3cQ1fXOmQgO4ynS8uCRXUsjkQqsMzOt8iNNpT3gtQE4dHRTDl2J+Pup3hW/HnY9EldviG8aW4+KBWZ/jm8Q3Zz74IWu/3a+fX8XwTXAQJNkKeEdC8MUJUT4AuBD8xpyrDBNeI3iGYiFRmJmHV+d4boOysbNqMgJrpVJdjWFuP8yreTTRqIAuTQb4uE7LH2sJM1+j8RkUdXnHdfwjPSuLWKIi3YeOHAdwQbJjx2EdDP2BtBXF99Kba5WFcKI32ZziMa6PqisAWNzBdW6UwCsgUlNAkCMGHKOHN0VYWHstGtW9uy07YkuVEmuC0maLqqkCJwQ22OoqvM5y4aUkZGS13aa3t7+J9CADPxE7YoW/oi/hZFrLCCc5+wKYMe5fldMTLbW9b1oX4bVyEAuqmyedAmCpqjolK8oSClorcv4DuCGgbN4LyzCR0g7WLOHMaRUn9Z5cITLMRNHhCQfWpvhYkwVowQmVPQD1m4QbbyHGUfFgz3I6mKLkbtMt3NQ8f+rr+D4I9/PuYf9kfDtffAu7/7z/+7dX1hwN5/AM=);lineShape=1;strokeColor=default;" vertex="1" parent="1">
                    <mxGeometry x="363.4889578750008" y="115.04886220737319" width="76.83412664755133" height="68.9617694453799" as="geometry"/>
                </mxCell>
                <mxCell id="4" value="" style="shape=stencil(rZfbUttADIafxrcaac+6pvAezBAaT0PChNDC27PGuM1q8R+Y6Z3jfNrV4Zd2Pfirp+3t42Zw/HQ6Hn5t/ox3p+3gfwzOjfvt5jie6tPgrwd/dX84bn4eD8/7u/n34+1ETk8Ph9/TCi+znSqlOFk5fp3fOOL8/uJm5nfj/pyPVLThIyVd54tSdg0vQrEAA6ZiHGIKbt0gKXFr4B1Fv24QI7ncGIRMDFwKTDE0BqnuAJJUc5JLY5AzRRCDOCqpMZjyBnYQcu0GtY4FbUAcLK9pnWcbgDATMzKIrtsAFIHJqeUzdEi69aMgnjveQf8/ovvLFyqgALx0yRn/IZK1eJ3lHVw/eMszzE8ygsikEfEavsPLkr0v+iMUpIsX8jF1+QT6EUpdfgr0P3V6ENDz8omeI9CPkI+Wz9Af8ZbH/VJavV1uyMTdBlBwPlm+QIckWz7hBusmkMcN3AlOQcH69ctysq353wnOQ94WuCwj6b/w9Vg0FS7YwAXKbcQ5koIKeKXQzojEUBIx2KYPkQIwSHWGtFPdV92CouXaJK2BlCWqz28HtaimbFQAr4FKG4InBUmdpk7b93Vwo/Wru2J4ATWYRGzXZ+RPnVLB8mh9tW3My+1ojY+WF3T9Uyu6qnOUH7Wq5mXDNV6tP/Bew92cqFcdcB+dNjCKI48DNgWrJ8mFgK0/qAO+ff++yNeHf5f9+3G3m78Vzv+3Hwf11fxh4a/fAA==);lineShape=1;strokeColor=default;" vertex="1" parent="1">
                    <mxGeometry x="233.3865663905649" y="181.58796597843093" width="154.0263735964263" height="122.1196926869577" as="geometry"/>
                </mxCell>
                <mxCell id="5" value="" style="shape=stencil(rVfZbtswEPwavS64PJfPafofAeLURt04cNzr77uqqoRcWtMa6Jssz1B7z3IKd6/7h5fd5N3r5Xz6vPt+eLzsp/Bh8v7wvN+dDxd9msL9FO6eTufdp/Pp6/Pj8vvlYUbOT19O3+YTfiw8do6cm2ne/VxeOar194uPC+F4eG4ItVKqHT5RyACfqXCHZ6bktwmSKcSOoBZ52SYUPa90hMCU3TYhRaq5I8REAnyIjrg3KVWqcZugBvj+C8VT5m2Cz8TSESRQBE57b8NaNW8JEv5E/Y2QqII8aF5NojX1DvmQyLMlBEQIlIMlJOQ0k/OWICDTXCgnS0BR4kDS11LTINcZ+rfc8olMecALiFK84jOqbk9hOD+APDPVIQkO1QUVY49QCcj+XCw+FtDOtpsV7wFexwkPBjHKcVzz0xJAN7MMVSRrqW/VqURLCKiwI3G1hIybMw5fqLg5owlrxT7Edei2zYnqjlfdaAgFh1WGykM+cFrz2hKAVmlphKF3KpKS1eC2N0HtxXX6tL2J8nwFH3FvDvbwf8QP2v8XTVAd7GVNRUdAAgKlHj+rGsiw2N5X2UyoIooddirMBRnkyQ3SnwEhiu0b1XaUsuzXGm7WFwY+qIvFSI5+AWwjJZEz2wjcwEq0Mos3vPl8uxEWME9LJlcNPgFBKIXEG3wAeHmL3zueQVOKH893ID6S1pJp8GDQic6tdAO+8m321Gg3Neyvbthi44PiqUqRrP0oX/NMs/WD6uHmK8U/EPTh/QbzdDgelwtQ+7+98eir5bYU7n8B);lineShape=1;strokeColor=default;" vertex="1" parent="1">
                    <mxGeometry x="399.25747917209947" y="190.59522305536598" width="11.15760747649324" height="141.44036937610508" as="geometry"/>
                </mxCell>
                <mxCell id="6" value="" style="shape=stencil(lZfbbtswDIafxrcEdaauu+49CjRdjGVJkWZb+/ajZziNKPsvcmdL/EzxLA/h4W3/9LobPL9dzqefu7/j82U/hG+D9+NxvzuPF30awuMQHl5O592P8+n38Xl+f32aJKenX6c/0xfeZ86RhAny/DEvMEX+v/B9Fj+MxxvxROIb8US5bIs7R9x+XldK3AZUfeEG8J5c3QZCpBAbIGTiBCxgSq2G5CjmbSBn8tIA0wrwUamLiQtQhLJsA1IpuQaQQjVsAzVRSQ1QIzlgQ9Uj5RYQiuBIClRvgeJBpJmJW7/qN9hhFWKBAPyq21IskED26XbuNBSQTLodvQUqSFfddm2ob/ywTghJ6lQgI4RSZ4SgMwmFzk0ZAz52gUDJIUtJ3oYa+bXXoG7AXgpigYRtyGyBgAHpKsKDBJ9C3QGoM03J1BntcZHmaoGIK0g6L8FIa6p1GirQsF7VqPmtNI76VaexvazCTlO7bjnpxEfq87vidK33AjlbQDAQQ2c0CvXdQFyG2hVISz6uDyFNzjYOOpY8GKQ61GKbTKLJAgKXk70M5AKLOtalIq+j2sO2EcIyca6XgUIBlJzTRtcCPlBE3XgZONd+72FmRJt6eZlhq+JMvj2Og/Ws/hYjHsG1ga13HGxgXekznIW8XLs+xQuIFZOz4qhNsA2UugqePdmzO3j2Ym/BDMVrseLAVGfTGNeJBtF6Bg1XZ3sPwzl254X/S3F9+Py3eBkPh/nX5Hbf/ovo0vwfEx7/AQ==);lineShape=1;strokeColor=default;" vertex="1" parent="1">
                    <mxGeometry x="434.5886963164926" y="184.5865193686393" width="138.57090215813787" height="138.76353928470803" as="geometry"/>
                </mxCell>
                <mxCell id="7" value="" style="shape=stencil(lVhJcttADHwNr6jBrJiz4/zDVZYjVRTJJctZfh8orCE1INWRblzQg70BcghPH9uX983g3cf5dPy++bV7PW+H8GXwfnfYbk67s14N4XkIT2/H0+bb6fh5eB3v318ukperH8eflxN+j7jsKPsLyrs/4xMO5OK/J19HwH53uAIkpiQWUOptQGQKRkOmwLcBwVGJHcCrTqBBX9feJD0iptsATlR7k6KnADSoiwaQCjHSkMmHDlA8MQirj+RTB5BIMYAoCaXcAWqg5EDi1OLepJooAqdLIjEamDJIXHXkjA/Y6dmABsiFvAAAU+k1aDl6oKFUktKXRiL2twHZU+ozfakuENYYVhoImeSTNUnIAYvYU+TeZ0ro/ObfVNswy9qdYsQDcHfRm4EEnO7Im/D/53TXl6iHBbcQZxJQPQtjmBjablx10JhFIFUdcHWRJnUGiku14qAIQjN1FkeUG1sgZvECAhkbHc+BjPD00vOIhy0YKYsRF0C1Wq89JSgNoulCYtsDB5KjEUeDwi+7CXEyW+7Apzuq1hhku7PEgSOjFfVI3Kd6vS+rjtg2H6oZZ6cbrkhu0/i+emdLwbiblIUsE+BefUhc54VdkIiB8V5nZN9+uoChCZXa62mOE4NY5tRqdrJHWlmvAiTYBg/TFF0f47oA9vFPmCzZLaotC8UCVGjj9gDRZQM4UTLVPqq6nVTQjClTNtPH4USHbDuslkZe65l2i6VQrQRLIXPz8WrtrCgT1iL1KqE+UwV9qqOyDNpepDXiRBOlObXu8wLApVXLelQrVcMs+rkANOjK6PpMCxUQVP1EMotzgUnIE1VdyQN2yWx5WmD/58XnjsAU6EprciYkyB7l/d6eSiED+dD211ke+hts0fHE9rcMMg5rhhmUhAJKsICCXTZLhG7daInXHMgCkDHAZwuoKMuPfpjfAdCL+T/A226/H38jXL+3/w300fjPITz/BQ==);lineShape=1;strokeColor=default;" vertex="1" parent="1">
                    <mxGeometry x="194.31810065152854" y="316.19765078790033" width="52.474411356806286" height="55.34988842071948" as="geometry"/>
                </mxCell>
                <mxCell id="8" value="" style="shape=stencil(lVjbctpADP0aXjV71+o5Tf8jMyGFKYUMobe/r7bMmqxsH4Y3Y45sSefo4t3Ep4/dy/t2E9zH5Xz6vv29f73sNvHLJoT9cbc97y96tYnPm/j0djpvv51PP4+v19/vLw3Zrn6cfrUn/LnahUIpNKvg/l7veEeS/9/5ejU47I+fDQL5NBokymHdwDNlHg0qRfAGH6iUwSBEynHdoFJ2Az46Yl7HZ0ojPjmKIIJILg747InrOj6RGwMuiSrKkL5+dIiZAjBQDgxplXtMyx45CiNpkruTiwbFkaujQaFc1g3UY0OaeMogSeIojVmqnpwAA7YulUzisYEfea4UkEuhy2ASkhINgq6RoqmFSgyUyp7C6JJyH0AMmXttTUGTA8pI0eITBSCMIBRHbccurWV8pVoMPgL/FZ+SwSP/Fe9Hf7QZIP+5N6sbHomo4U27o5ygPy4bvEP+1J6Ojnf3ns/O4O/w5bPBw3wKlfQAXjunt/54kE/Fp2rjBQXQOnMxeAElqfgqli/sv9FngH1O8UUMPuN44xhv7E1mLf/CBh8xv0kMHtaj2B6nzwfxtllp/fFYnyGY/KCO2OrL5jMgf7i38Bu/jOKdPd+Tx/EGW48F6K3lx+rzDl/O1otD+ZF5vcB+8iBe+3+1/leAz9WuHsov0DPr32P/YThSa6Zi+mfpClyewdmul61E0bbonKWgjXmgaZG+vU0zlSHJbS8YRaSDH1UBz6aepN7HlmmQ2VhymOgoVthS4RLbhG98cnDJ5C6EiWnpe/AyEeTG5+t6FkCSZrTpVg1H2WyTEFhquQt/Unbt2l3dwkdZBPwZ4XMfdRNpKl7UXGbD1XvcHRMlwwEMQfFG2QynpebIs8GjzwjFZzH4iLatbLs190+1ZXyhWGy8aLqW3synwsQSKrbMKo6X7Zecrr9oWrLdXgVvx9yX1RsefVg2/0031RoGNakGbPsKFZyhB48D7hvoxe304W1/OFwPLz7/b08r9Nb1pCM+/wM=);lineShape=1;strokeColor=default;" vertex="1" parent="1">
                    <mxGeometry x="383.71886845862105" y="322.1775978219289" width="83.7348673854085" height="72.97607954387331" as="geometry"/>
                </mxCell>
                <mxCell id="9" value="" style="shape=stencil(lVjbchoxDP0aXjW25Jue0/Q/MhNSmFLIENLL31eUMay17EnztizneC3p6GKv5OFt8/S6XnF4Ox0P39e/ts+nzUq+rJi3+836uD3Z00oeV/Lwcjiuvx0P7/vny+/XpzPy/PTj8PO8wu8LjzPFcmZx+HN5I5Ga/nvz9ULYbfcTQmxUZSQwSQYEIXZfECptmaAUecRXYoAvFMb1E1Opy/hEQQd8DtQKXH80uDBpAgZHSqMBNRPHZQJHymEgtEIZuNQcUsYtaaIGTM6FYhwJGUa5Jqp1JFytuh+0QMHZwDBqWqiMYSiNGGxJZRY3E15YJrQwE1KGgctKrQ0Ei0wBW5JGMn7BYq/AaA6UnZaoAq820jFsCcKZanZwhvDo4QHp2otOYJpF4uTgURDcZRlTAp40uPM8NaCF2BPwBo+oZlEehWBxAzpgr8xADDbDXvmWO6A8CEn0cOBI6Yk92QxwZCKpDl7BZkyAwTkSJa2VpeTgCkqtre4SkApQZPLZZK0GFn5XBKUXuQVH5tEzxodR1VnygTBZ7Up+dZgeVd3eGwhT7C35BhdQCSybvN+RCGLX6w2OFBm7ZTcRCBCBNZrRM6ZICFefHoKabS8rk2xCrbbHfAIHIvgkXCnNkg+1j+jxDCcXUZ+tDU9ScZauDerGenxzOhPcxG2wGYe1HOFsFMNssChKGTCUZ5NI7pl8f9bJvtrbcJRA1PJ1jLi6KXwgi+JHEW1UkKgbtZHQtHvuvhGkbuassMNxV/3Vq1YMQamdRSFpD/1SeXOTi60AglBIXH0TXCTYd/TzsIRaevNlxXxWUD1PvpHyBy411cQZAaWz6Sh4AjpKnb2UZzaAqN3Gy4mXULkzgqonZNTGzETnVu3NZJHQPKGgLVXfnCTg41TpZ6EJAWmbr6etyRk4onmv+MnZCBl9IfdReUKAlf6zx/L/INjD7RbgZbvbXS4Rpv/7WwN7dblxkMe/);lineShape=1;strokeColor=default;" vertex="1" parent="1">
                    <mxGeometry x="576.6809631705869" y="303.47276513403494" width="69.20432604554821" height="62.76764042056038" as="geometry"/>
                </mxCell>
                <mxCell id="12" value="" style="shape=stencil(7VjLbhsxDPwaXwk9KfGcpv8RIE5jNI0DJ339faka2qyo9aQ5tujN3WoiPodD7eLV8/3N034X3PPL6fh5//1w+3K/ix92IRwe7/enw4v+2sXrXby6O572n07Hr4+3538/3bST7deX47f2F36ccdFRkIYK7uf5Syjkw+8vH8+Ah8PjChCYvBsAsfQv24BAMQyAVIjBDV4ojDfkQsEDQKY6+sCZcgKASFIGQHEkEQACpdGkol4JAPjphkgO+eApsAVkBgBH0Y+ABG8Q8tWej8Dn0iOyOp9Bnpk4TeeBPZnibE+5fD5RmOxx4HykkG1AGRSFpljseQ/sDz3aq5JA8fFUjf36JaPzwva8ByXnyI0lyo4qiI/r5bW0pVCt0P7xfKywfiKlsR5CpQIKOlExROSJgb9s/fWlZ/xSh/kxYe0LKgiN6FhBuadk+7z6N1a0JwcCqvGT8e8vKdwOUKE8ng/EIAFZ+2+MqPQUbgfUUzF/33XO2AZI58ClJCJsgVJ6Rpeaq8SgRmuyJMTa1iBnoqxoWIhhF0uiNBJ15T5+tgEaxPEGYSogDQoQkwZNJHBaATwWqtQ+frYBtRuwAAQ7XShlC2DQO6KV7yxAECD1NK0BoJYkdANWgIIy7SlOJqH+b6URbFhRHqpm2gAKZLAGMD4wCVA6apKRFQpA4kudTibTmRIwScNqfciQZFo/GEDqtLYN4D6FV4CKEqck4KxJHvVDnTouv9VxXGxYUZS8m4anWhnA8GnFaZq6ksc22TDVrlovhUkMCwgk1+bjxAJooMs0cVdx2EaoIuLpCtRzOlImJxLmb1scGiZAZdpzZkIowIEb3g9YOmyZEAVOiOonZVjgHC3ZSltOUPtzsdoqO7ghZZVqIzNFvROYlKYp18QGEie+b1xLMWH5HBe1v4QVWqT60DCZXuAAV/pqJ4rHUsAny8bqMxIbftFfC0AgfavgNDeoBnxjycujpNTECDLJWad1C0AKq+2dBlD66vp/Ff6XV2FA23/7KpxsAemmgldJGfOl/AvlsLUn6+xFq3OgMnJX4j57twHcqW0hCoaPbF5sytp+jIhCrKLXKkRLRpgm8ysjbwP8tK6mPoUuPRSa7TDgNta6NnnQL0gsqIv2sTNCcatBzBNA0A1lesVIsFR16pleUAB6HdXis0Mnd1W23fyuq+sVADmtgDjVEhJt735D/gOA/nh9sr47PDycX7zX/2+fuPXT+Xk8Xv8C);lineShape=1;strokeColor=default;" vertex="1" parent="1">
                    <mxGeometry x="437.52272820029725" y="91.35744602049647" width="30.039440550391646" height="58.84642188059627" as="geometry"/>
                </mxCell>
                <mxCell id="13" value="" style="shape=stencil(lVbLctswDPwaXXcIgs9zmv5HZuLUnrp2xnHb5O8LVZVrsPFOc6MkLCHsLgFOeveyfXjeTDG8nE/Hr5ufu8fzdtJPU4y7w3Zz2p1tNen9pHdPx9Pmy+n4/fC4PD8/zJHz6tvxx7zD64ITQZUZFcPb8iYGSPr95vMC2O8OVwDNaNkBJKAQQLHPwQEUGm/Ht4xaXXxACLfju/2vjxcUJfEJUlx8RWL7V6j6/QsqA3SoZyg25HIbIOFS4YpIJgvh1FLE6AA5oZEUVkToDlAKMsugaL7qmmkRraP6DC2gN6qzNg+IiES4Jghe6NohJEM15by3a6TerglpYEkorbZf9xlSRyLmNsAfXS+HoUCImaquJF7MxI9PNV29NSRSf5tMwWe4sPB+fIJ6swZacmuoOsQXIc4zTv3+GSGT+AL1ookiVgJoaJ6huWJ+oPsgWkUkFBmgeEAOyAxQxwwlojGAceJrmK1IVOiC6Fm1w1OYbGV1/tXxVOajjwKKQnyfNGs10gC0jzXMVRGW5B+WZimJNWwaNp/hqje/XzWK70kmZSXutunpG4Y12sjG7WjumWbCkSB7Tqu5nVQcVudfjNfXP7wRP0wqG+9CJAhjk59PApuFyENDFSTS43Uczqo0Po/916Z/YEMHeWi/kXbHD9+n/gNgi7/Xt6fdfr/c/q6/j9c9e7VcFfX+Fw==);lineShape=1;strokeColor=default;" vertex="1" parent="1">
                    <mxGeometry x="442.0909174768906" y="124.14975272017239" width="14.283122938377119" height="4.746219409662331" as="geometry"/>
                </mxCell>
                <mxCell id="14" value="" style="shape=stencil(7VlJbhsxEHyNrg2Sza3PjvMPA5ZjIY5lyM72+zSjcCI2Z8owAuQQ5CbLU2IvVb1wdnz1fH/ztN8F9/xyOn7cfz3cvtzv+N0uhMPj/f50eNFPO77e8dXd8bT/cDp+frw9//10055snz4dv7Rf+HbGBaHADRXc9/M3qRLHn9+8PwMeDo+XgEI5DYCcqP25CUhU6wAoAZ8QqbgRUEkqADDJaFKN5AQCwmhSTVQyAASSMAIyJYYALyOg9ECvAzz5YAEVALxQMT5o4hwAVArJAhKIks+UgwUUdEIkKRaQkQ9McTqBCwAEctFGSdAJjsRbAINMK8AbgIYBmCSUJyr9OnLr+Wif90A+yrM8igETKVMcc5DV4bT9vLJiFFtSe1CAYhdvB0RPFel/YoWemUGEuHS1d4AyUQBRk+v/XmLaqb4eokBpzLF+ATwobHPmyAEdaPXJo8cqbmCPsBVahimQOv2+CgkESIotwa0+IVJrSkdWsCMGJ1RPMtJUs4h8Ls62kRg6E9eT5q0PMfW0rAOEvGG2p4hMkt4DLqSAeCdKA6M1D9uI5iGPJuXajdyoRgvTFvnjTqU22V7IVIDalNwm1VV6s1tXW+i9tQNE+Y6ap1Aaw9TiAExSNpvMKeMFpDpZn9WiBAaGQmV6vsAab0qe4JFHm0hiC6jAIO/77y2AjFutJ2YbU+SymlSjjWkEPgjVsUaKQEHXKUZLZ9zoU0YK+ryAHEQrzleeZ3KT/RlNO5Qm+1ER1hRPHI2Ao5OQW8KAPW5SWYY6dp3BF5QTxCBbsBunwVzBU3ywZtLEh9c06Yt9Hs1dlWqy9jsQ/zbYiQWg/qESc8lmACmmadKEtPQ9Y/MEA6hQY+pD8BaAxl8NkgmqwLWl2GGwiQyQKPVpfRlEHB6N3gxYCSrDXhCyHY4kwI4Ziy2l2gArGixyH7YuRni0tehgYUaX6uAGrCtHHU1qXR+IXw0wLbboyIkSLX0xWyaR3Om+Na/x6LTOOh715KlpJi1gABDFdnGdNFAHickug7F2fWxmeoxSZJjpFG3NiA7qQTeLbMbg2vvQeliDXdeYsaK1zo+JU5FHVCeTHbS19FfEJaX36IPHG2Hj0ji86PqCOr/YrX+Z39azoFVszILHWYjZzgpe4G7B0Q4jjAXadtoRoNsLHPDEEkN3CzQu+Mlp3eOR3sLU34omEt04/auXYAFNeX/lEmwy6f8l2J9dgrXtxTCJYdXTGIUxqKX2sraVBXMnpB0UueyT5WrGA25jkmmIBTMpWyYlfA/mix19FIDKmJ8ukrQqFXSCWCYlPPqEaU9t14vAaa0ZZq5XABoQtRTzVFkdeluQ7IVH8wFVpWKveVqUEKDa3U3zEFCUar9Bvcw00E97a2PygK9U3v6a53WAfvj9Vunu8PBwfil1+X/7Fkq/Or/B4usf);lineShape=1;strokeColor=default;" vertex="1" parent="1">
                    <mxGeometry x="153.614645135174" y="286.08445998546176" width="27.842055367588728" height="58.45805269645143" as="geometry"/>
                </mxCell>
                <mxCell id="15" value="" style="shape=stencil(rVfZbttADPwavRK75J7PafofAeLURl07cNzr70tVWEVLSRMU6Jssc7Q8ZkjuIA9vx6fXw8Du7X67fj38PD3fj4N8GphPl+Phdrrr0yCPgzy8XG+HL7fr98vz9Pv1abQcn75df4xf+DXhgpDjEcXu9/SmUCp/X3ye7M+ny8JeKjnp7L2+yQDA5EsHEE817gM4UAgdIASqbh+gDnAfQkwUEgAkKn0MKVLCAKkdIGdKKIZINfVZZRLZBwS2aS3qkt8HpEDJ9YAC61CFsu8BFbpUI+VsAQmdkK1L1VFEJyhzDMBTYQgofaU1qgCypIDak0+j8tilEHuAkgWdUEj6tOobBlzS7yVzwgd1CC3rC0BFLjHFtAIAto5lWrkUgEtKtRJt0KgORanR01vJ4oCmFWD0oIUTEIMCvOGSUAJcUkDp24zmzaEYKnlTB4f14FrWFwLKqA5i9TBKNECJ+hUgVChRm1ZHHgEKxb7zqURRHZQ5iW1aC+qtzq26QGgE3jsiG0AiRoUoLe0L9kFRZ+KVIBxqTErOleQyGKNaau7JtMjDf0IkRTjrFJKE6Og3kihttO7NRcPwsVkBdszNd+Zrbkdu2q+okdVFQFcdHz1bE1MG34/EfcCRYfP2zg4gmcm4DchtsWgA1pyBCFjsAPIRVpkzxX4ABZhS3e+kr4G0vrZtX+1w8HD66HZnepK2QTBLdD80NXPEaAENtgRYBZKaEN/tPfK/2PnsWgvc3twcCZv8oNkZvO1eOq5BvLoZmr1N2m65bS8tfTOnKYL8qL309vMk3bP/pwvDx/b68H47eTmdz9PlZvm/vc3oq+kmJI9/AA==);lineShape=1;strokeColor=default;" vertex="1" parent="1">
                    <mxGeometry x="436.1930825980062" y="287.9715068256712" width="24.972073506827883" height="30.46963180317448" as="geometry"/>
                </mxCell>
                <mxCell id="16" value="" style="shape=stencil(7VjbclshDPwav2oAAYLnNP2PzMSpPXXtjOP08vfVqYN7EM6epE+dad+OMQsSWq0EK7552tw9rlfBPZ2Oh8/rb9v702bFH1YhbPeb9XF70q8V36745uFwXH86Hp739+ffj3fTzOnry+HrtML3M85nKnFCBffjPBKEiv818vEM2G33PSBxB+BKMUAAuw6QAoUKAb43KSdyCJCo9DtIpOwgIIceUCkgHxLF3qTiyCFApFosQDIEBOkBniKKAxMnC6jIpDDscBm5DvDkvQW8HMNVQKU6zgcWlXYic4NA2ISErccFzFdqZzs/JDQ/GPsdJXBASrveHmURSp1EMrDOgfmBfL9+rjBgam3PuZSgv0rhPm24NDG4Tgjy/fqBKQJOJ0o9Q5VREefxS5pfDKIA7GHX/m7zLx5dnR8LpZ4QesKID0LcE6JCPhS28/XIGBxQjcRGSxNOSTfELNbG8utbDD5khoAiFHuZkASjJoGkj1rB6puyFaKqeVlA3MIQhwSFSHmTzA6qTcAkJYIrAwA4rUzLbAFQ32tjwgwQGABK084LQEcAW73W7T4OGvuEKohY/aoZA0qTk1kcEhKMaiuIMl5ARdBjtZGO5BHA25pQGWrwJCkjAMQhxCHSahLI0aksjE4jLuVhh9RGrgPEioAGLiOnc2P/jBoLAB7IhyKtTnMvxRO9kdORXLIAVMw1RU11m4nha9zwbtgCqWu1DYkCkM5oQuRqj0lwUjtvAwFLrlhxrRkDdAfjg/IRyYZabKRPe1d8SmUAwFD7QTa4LfEqIL4HoDcQK98qJKhzC63dv9QszSAA0FYgml7SwQwqQ4GY6iRga1Gq9WzNgSoIXA1NGS/tnieH2hOxKceYfCL2WDXNPXBaLTYdt15rIjApZks+oQryh9XnPh0SVVB1lUkmG2TpUmU6RB1xqL2y6an1RcCRFlujteXOKMi2RCetJcgBbwG5LN1s/82rsDHp/1X4r74K52H9CCkhg5jiJySxXeHCG5XYOr7wCJab9r/xlW18lcvwPiKW0FMEgT3SSvxM2VF/N+iW9m/InjqsH2G5nBIsWwDMeb0TlncBhjvhkkmxKfMbfVZltDssXI80RsZpHDUFmH5zgRZ/8rq7BNCP34/JD9vd7vwWPf/fPj7r0Pnhmm9/Ag==);lineShape=1;strokeColor=default;" vertex="1" parent="1">
                    <mxGeometry x="633.266373223418" y="265.9124333150219" width="31.725401898327164" height="47.061810507273776" as="geometry"/>
                </mxCell>
                <mxCell id="17" value="" style="shape=stencil(lZfdbtswDIWfxreEROr3uuveo0DTxViWFGm2tW8/GZ5/RNknyJ3jfLRJkedI7uTp4/jyfujYfNyul5+Hv/3r7djJt465Px8P1/5Wrjp57uTp7XI9/Lhefp9fx9/vLwM5XP26/Bme8DnG5UzRDFFsvsY7ltJ44/vIn/rzmg+UbMU7igx4Jp8qPlG2+3xyFEKdj6cc9gOiUKoD2FPI+wHBUKgzkkQCSnCB2FcBnimAABGS+g0hkAMBZc2zVAGxrJLfD7DtqiZKcT/AU6pLyJ4iaIOd/p35DNtsyXnNZzBGlqxreNA0Q4kf432Tf0qI56B5NESGTNK8E8gbzf9fgT1e1Vv6C59vveY9GCBDEjQvYB6KZpzmLVClmTS75uE8cGp4sD6WfNQ8g/mfTW3FO9BfO8lvxUdQL2/018B8cjP/AvnYzFvA69M8PyFD0RY36AvkY7RhWTOP+N4ANYLMcKClKQA1oAhANO+xIBtDYSzIZoBw/rbhUcPMhgAEG9ZDvNNbUnbk0AZgyeQqIEXyQDElI1d3OEZooWL1xh385GLbJZSTRp2Sn21je9MrLa2HQsKku+2zBE8mPp8lHLSVJMT1GFk37Tzbx6GyrGqnx7wnrudIoE+XKTC1bmYh7fFK+GVwQcGLbS68AbJcbHPFo+Nl1utTeFRvaXGTD8p/doWFZ5xP1Dzy6eWYsfBINYvNLjza51c2u5zXzZ0XqPM0CRDZUIDm7xTw2PfDXb5cLB8rb/3pNH7rrP/XHzfl1vhhJM//AA==);lineShape=1;strokeColor=default;" vertex="1" parent="1">
                    <mxGeometry x="305.0654347285497" y="397.59181922897756" width="125.3493079378643" height="131.7703829753466" as="geometry"/>
                </mxCell>
                <mxCell id="18" value="" style="shape=stencil(lVjLbhsxDPwaXwlJFCXxnKb/ESBOYzSNA8d9/X25NbRecb0T5ObHSEuRM+Rod3z3/vzwtt+l8H4+Hb/vfx8ez887/rJL6fD6vD8dzvZpx/c7vns6nvbfTsefr4+X728PE3L69OP4a9rhz2VdrlRlWpXC38svhaL+/+HrBf9yeF3imZgHfCXhbTxXanHAK9UA8KH/3fGRKcXtBYkptnGBRVS3F8RCaXxCStRASDFQGp9gZ8jgzJbBNOAtCSindoI64HOBOUq+BFIpC9q/jPGXRilt4y1/Y8mq4QtIUPYHaAUGlLJ/giZKKEPGopGlWiiAIwhTcAsqFUAjS4lLqj2hgDO0sCK2SQOcoalndqsUwAIVCmWsg4kVLVhr2eqQ4QKnHUk90bcXMOl4aNa+xe1DV9IxraaOCtRpVGsjl0yvAshnhSuj2rTT/TYzGslYBqEMxJbVB8TwxDlTcO2FGOEDaXX4BpqL4Vlc/DAew0eHR7w2vOtepjSwvxHA6cA4B5Rp+Oz3R/Fw8/kxAgFOG15W+wPCGT6u4gd841mDi4GJzmvdVF3+4QCc5+kVn/CAdfzPUGDrVpqJ0Xlbn11XfMD1Kq5FdAFt8SF4fSH+G178/oriMX76+JGfmPjvpjHJB/ry9UKTacJn33+Q4Qrerggp4r/6jluIsR6lOLygUazr/lBRvYwPfv8K8m/4lH086LzGZ+du+gabevH5bxgvHo/G/GfxVl+n3wDNmc2XpA4fQD+R0L3qFY9GvCjxZ+ZdUZ//Cvut+SZxAz53xt72HGE1UAVOeDNucWTcxEGQItWuwIUNQjMmhlVM5rQUWzPv5RSWTaNviw0vaNHPVcWDxoxTHgtneQjg1JM3HDvvIg9bWnBa1ta739ZljsdKaIbuLCZ/6tYoADZJH3aLOkR0W/RqsLShdrQiht3N0N0p9GY+Txvpfue2/D2P2OwZaKfNd6OE7xAmRmdv0nzRuV2y2Ik/swIb6smfjyHFgCda8ZeOSowce1o7LsRSu23rKASGEzDPj1/gkWOva0ckyIHX1SULO/bmb3HYQRk+j/vPpNrCi3dESMR5NfHzR/G79xO5F2QTP2peMB9WjU7gODB88vxBE9PwwTsW5JA//crtQ7x9uL7fezq8vFxeDy7/9+8D7afLu0S+/wc=);lineShape=1;strokeColor=default;" vertex="1" parent="1">
                    <mxGeometry x="244.95388475735535" y="533.9006359639452" width="107.77120593245263" height="104.33775564883058" as="geometry"/>
                </mxCell>
                <mxCell id="19" value="" style="shape=stencil(lZfbchoxDIafZm81lm35cJ2m75GZkMKUhgyhp7evttQEy+y/9G5Z9K11ljyFh/ft09tm8u79dDx83fzcPZ+2U/g0eb973W6Ou5M+TeFxCg8vh+Pmy/Hw/fX5/PvtaZacn74dfsxf+HXmaqTgZ8q73//ekI9/X3w+y+93r1fyxVPMnXyhWpflM1Ng831Oy/IpUA2dPDsSAEgi73ogUQEaSSRfOsBLO3PxhNQBgSkBIAmF3oZQ25ulE2LsgFipyjIQA6VeJSnk3DKgXpc+zCmT52WAMyXpgCxQJQ2T74ESmlW3AW4KXIBKsUCVah/pyuRAagQ35LZmLwCiWBsUqBlEmimyBRLwUvKUgwUyMHqshxpggaZIpVgAVahmazRApIpOEEoGSDD55hOMWzMM3GwDWwDaEKgYLxXKHsYhmdRY6Uvax5wFPAIcObaAAxWnFWwDV5rflgAXrZcSMFpy66RXgVsDjA1CglTKgw2xNZ4lG5KxIbQ3t4FKmS2A3KpxqP3AmksUVZwfIq0ATj6RQSXUBCIlZ4GMbJChkeknMGDmgwYOuVUBMV5Kayo5c0KmjJpAJK42vQWdEIb0rtitTHkAYIn+L6DzwfVeYufW5q7dTlYI1lQQ6ycUiUA89ntgxOX4y9hNba4ufN+ZRQB3Sp3r3GdGdrBpeE+l12iuWQAEHTe9yeLgmI7FdntdyFAPiMN4mHcJlBnejjgf4Y6oG1zpgY/15jaQbVuaHQ2MFl2/+pkoLd2XqkH6avDEIAoa1dr7yMGRO94cHCy28WaCC2fucNXIM4iANrhajLwg+ULcTx6GdTB3q2D8CfXXlMxGvqJ12A2VHFt7uheQ1jvu1CjhiA0W57ZP3+nR0gr7zojhJW/MiNoOvDPj8F14XV4fPi7eL7v9/nxvv/7fXtT11fmSHx7/AA==);lineShape=1;strokeColor=default;" vertex="1" parent="1">
                    <mxGeometry x="183.667204030427" y="518.916004787196" width="36.40160810244561" height="45.08499825877425" as="geometry"/>
                </mxCell>
                <mxCell id="20" value="" style="shape=stencil(7VhLblsxDDyNt4REfSiu0/QeAeI0RtM4cJJ+bl+qhl6f6L4JChRdFN05jsYixZkhpV26er6/edrvODy/nI4f918Oty/3u/Rux3x4vN+fDi/2aZeud+nq7njafzgdXx9vz38/3fSV/dOn4+f+C1/PuEIcOojDt/MXtZC0H9+8P69/ODyu1nOkWD1AyzYgZeLiASVuA3KhGmdAphC2ASVTcjkEaiCkyj6kIhTyNkACyRxSYcrglKSR6gTIQqVuA1q5ADAp2KHZsc6AFKgqCClTSxOAEzFIujYKMgFiowZCqpUkzwChzABglW4zwKiBQsqkLqRECQPqnHQMpKAOHTAfa6OCU4iO3RTRGRWfgXEbxSMUZ+bxIPtW0cq8PgxibTE7NLeegTglkiS3HmlTrD7i1ickHKvwrOVIKQEZMMW5XpGhfzWlMm/AWMq6+OEitEoBhKSV6iwDcxcBZ6rRy8BO+Q2zkDmHlqBupJLOIVmQyCGljFNfAI1EcJ3nOqgOv9kiUmIPUKQ0HUpfAZBpm3Tq3KlUiEEO5l/Z7WCeCQpnYnaWaqVUpM4yDHQpnFkqkn+l4gAV6s2SbrPejBoVH6vrti3CxmOFq+wBjCqdPL0NkBGXykXSPEr5a4CZ5FwH644Vt2fn2k2gzRigzAA1H0M+2YjnHDThHcQbpUkUdQY7JZ0LZxJlUGlZOs1KQAWdElOYd4gBu72RSZvfIuMZI7qsBU6TfcZwOxQ49vSG67LmtzQqbgLQoamtkPhCo4psQ7xXGl3hFCOjZ64ByL4vhsPet0EOJjDHjZIgmbqE3bwaqSH2VT/IJKaGJ5k/MX4Cyf0j4+ec8//x82+On+bawV2qKIN4ujO437erKjggXe5oK1JHsINeNJ5+xQdHuvL0hRMZjp/W+tybQR9wQRLmLs5S69JaNluVA5i4EU+L55ExJQJlljoMdAFY0sAhcx1esgAEljplfw3ojwLAtI1q2U1iAYq5jClqNVcVQNY8fm21HnUR9p3T4hFgRtEPt6JwCoued31oAjQKXsvWUyrIN3ht9icQULELHQieFIJXmnEOXUiWR6mF1Aq7x8W1sA/34HzYe2MXDaB0Gvet1foA+PC7T4Vvr7cPP98l7w4PD+dnzfX//TumfXV+A03X3wE=);lineShape=1;strokeColor=default;" vertex="1" parent="1">
                    <mxGeometry x="333.07772995202436" y="364.9457272316092" width="36.04604636974841" height="24.51286388581366" as="geometry"/>
                </mxCell>
                <mxCell id="21" value="" style="shape=stencil(lVbLbhsxDPyavRISqRfPafofAeLUi7p24Dht8/ehsZBj0espelvLHPE1HGqSh7ft0+tm4vB2Oh5+bv7Mz6ftJN8m5nm/3Rznk31N8jjJw8vhuPlxPLzvn5ffr09ny/PXr8Pv8w1/F1zOpOmM4vCxnDSS5eD7Yr+b91f2JVFogz0XSvk+oEbKdQCkTLECgFIMA6AwpXgfoI1KHlMoVEAOMQQKo4umpAJdsA4AFeIAAEI1joBCESRhIVceAbgRtVEY66pKpYHO3ZTJAAoAWSkVD0BJ59iZcAFUSiAHY0JyOSRqBQCY4shWjVQRIFJznW44pETZATIx4HeyIo5VakwZeMiV8silFiijxhmbRy7ZiCBALRSKB6CBaOkmhwDLqkzSfNKNAcCSFl/WgoZaqbkqNezhws0LNS5kWQdkH5KdIHqbRrBja6WiABC9VlqQgrWyjZ2+kqp1bpg0ineBuJGlC92VzkQgfalSVF+mBkKyGVX2jWjIA9+EhAEsfqWUTAIAsZC4HVRJwQ4yqRy5xNpdrtoH4nF+YuzKdsfe7R/tTFmP30+bLQukYSQjixKkhCU79ovh7TF5dYnd33q3Asl4f+jprNtXCuLs0QiI+KEJcIxT6Hr+Za9ohdgLSV19GOl76Gu42wvkWk5+kZt8o/v/88X2b3v7+Hoevsy73fK6vP7fPyftaHmKyuMn);lineShape=1;strokeColor=default;" vertex="1" parent="1">
                    <mxGeometry x="325.0402998862037" y="347.03493063603423" width="6.974434902488838" height="19.847884553086033" as="geometry"/>
                </mxCell>
                <mxCell id="22" value="" style="shape=stencil(fZbdcgIhDIWfZm8zQAg/17Z9j85U606tdqz9e/tmZ0c0uJ47xP0I5JwEBl59bp8/1kNwn6fj4W39M76ctgM/DCGM++36OJ50NPDjwKvN4bh+PR6+9i/z74/n6ctp9H74nlb4nbmSKZeJCu5vngmZ6jzzNAO7cX8FVKEsBuBKrgKg9oAE8gkCbLeUhEoEQKSUDZDLeWYRKIl8MEDRmHwfyBrBG6Amyu4+kDxxMoB3jhwgYu7TVAsVkFcWCs4CTBEoF4RctKeOxHIf8IXYpikHikAIf+MNUW94AGSSaoAoFIE3AlOyeWU+p2E5S9yfQZcQILVuQOwZdJNoS9Ls3wA5u2XZTIHECqeJ9kDpSaauRiNVcAY1QhdBzeLBli5WazpkSsBLV25uRaqWRyFawTQzRRIQYirJzq5atkBqLfouwqUxLBepthWb10vrWZY6UOAeyKCCtDV625mm9gmUC4Wc3VLJMMIE1BsA2FW9JraVlQB7n3c9oMKhCLEvIM1zBPZ25/umNQ1tVEC2G+fFCC8g398O2hNQuQlVu752DBfA+q0ptnqO5JFmeuIuo9DY7KjY71UxdJV4EntifPWorW++R/dC4t7V3DlIB5cHx2bc7eb3yvX//QNFp+bHDT/+Aw==);lineShape=1;strokeColor=default;" vertex="1" parent="1">
                    <mxGeometry x="321.8679608424759" y="327.8753124585194" width="4.672539772115215" height="4.665236216357243" as="geometry"/>
                </mxCell>
                <mxCell id="23" value="" style="shape=stencil(lVbLbtwwDPwaXwlJtB48p+l/BMima3S7G2w2ffx96RpyQraaIjdb5pgiORxy4ruX48PzYUrh5Xa9fD38WB5vx4k/TSkt5+Phutz0aeL7ie+eLtfDl+vl9fy4vT8/rJbr07fL9/UPPzdcIo4rKIVf20GgEP4cfN7MT8v5nXmj1Ix5phrH5rFRY2MfE9U8BvBM0QJSpCxjQE4k1QBYT+YxoMb+uQNmpplByIXmYGNmysCDNBKbUz0pDQLYXikGXAapVIt1IZQTBKRkAXoC8iqFqliARg0qp4Bs09Q0auyBrYfGlACZFDBb8lVNA8qSxmDzWpV9OEsxG0BRAuM6FHulolGhLGkD2cKVTAWwT/7qIPWAWk6J4MhUpOdtBKjWQ2UqiN9CYmOojWoFKvDG5r3UMzEqhFCzLprgyklvyZ2uc2/bESDYymktGwhCC5FtmtbEFcgNyR7QUCGqb4iVLSjoQpJ80Ej71h51QQecJW05K2UtU0BZKl1Ld25I14URoDjA3GfMKEuOS2Xn4wjghEk7SJAwVZrlIwCdEE429ERAlnQGeWHafY6mXHXCpGwFKsDsqZFVqgCXdFIXN+VCF5J/x9C5vI/RDJUv+qE4qyiA/0fPPG6wCMF3Gxdq4D6BslUYTRlSmEDJ7hlJ4GgIvU92+9xXrZG9zf96Q2xv440ZLhnBLwAxUoT/d11Tu8OBeXNrGNzzol87Y9e+gXmzlwkUQa0+uNT+11wf3vbnp+V02tbv99/9vq1H267O978B);lineShape=1;strokeColor=default;" vertex="1" parent="1">
                    <mxGeometry x="356.42576044337784" y="578.4326174947389" width="74.61002443391362" height="7.829335160351093" as="geometry"/>
                </mxCell>
                <mxCell id="24" value="" style="shape=stencil(lVfLctswDPwaXTEk+MQ5Tf8jM3FqT90447ivvy9UjRQDsrb1TZa4BrHALsEhPbzvn952A4f3y/n0dffz8HzZD+nTwHx43e/Oh4s+DelxSA8vp/Puy/n0/fV5+v32NK4cn76dfoz/8GvCSSGpI4rD7+lNTJTi3zefJ8Dx8HoF6JFKNwAOxLINqI3EAQrVsg0olUK2ACHJ24BcSaIBpEQtbANSICkGkAMVECEK9WQBhTJvAzhTYAMoSgNgKWWKdktVWUJJdwpiAE2TrqAOkdjS2oQKqIN+lmYAvUJAZ4q20r3NvN0G6I5tDl2oghx6njmZARJxBAXYwokSDQo3bsnmIBW295i0FZB0ikBAI6220iKUQITWKNktxRAogP5umRr7EL0BAPveUEAANDXVvJWcNKig2qm7CIUK2JIC2HafqDHhCMUVIlJAgtBec93XZ6u6nbRan6VV+zshlhJ1JwhtJrClpgKztPZCHfWGUMz3RBjtO6xyALSqIJJVkGoUNZ9KLpdVHQCtCmhOoxoTu4DzyrGXsEab66WGnSxQW+sB+EzrM+vXikO9pO5u6/BPUad5B9e+gULcCyiZ2NlGpAZoSrISRJmd5/axyF6jam4FJe2nE50mGKSwULgcuyoH8P88zwnL5NAogIx1OApW0TpLNNAYnHzr8TKt3D7Xg1e0JoWOuLLKOSpHAKCDQHYA7KzaSNlZAFU0IrZZvksACmi9zDWa1wc4gmpXujkDK0ftJIpbj05odZPIbn0FhOqE4M42NVm0fmUWDCc3lS3b/ef5uN5a3+16fIhcOc8iS6pAxhrAT1XwHNSEuzc7uKMPe14AOqEAXd59jfkPgD583JpeDsfjdOm6/u5vWfpquqGlxz8=);lineShape=1;strokeColor=default;" vertex="1" parent="1">
                    <mxGeometry x="353.7308806123913" y="570.8821079589768" width="25.38615032496864" height="29.5722765247192" as="geometry"/>
                </mxCell>
                <mxCell id="25" value="" style="shape=stencil(lVbLctswDPwaXTEEQfBxTtP/8EycWFPHzjhum/x9oCisDVhCpjeaxgrcXQDkQHevu83Ldojh9Xw6/tr+HR/Ou4F+DDGOh932NJ5lNdD9QHePx9P26XT8fXiYf79spshp9Xz8M33hbcZlBM4TKob3eadC4M+Nn3P8fjxcxReGEFV8ZKh5HVATICtAQmhOhhaASQG4AtE6AEOAEDSHAik4KRrEpgANAdEBMKABpK7bMusKmDSgADmAUqFWDZBDpnVAFlGKAlzpsIjgAiXaFOw4kaQUyJLwrEsByLBmIAdADMlkiBAc1kRQNQdR2tNVMmTtnBTk184ah6o5VIQUXZWMrJOXTgYpZ0YNKN3LZaulEoIFBOdIpUFmC3CbVDjoYpJPVCeD+JqND9GVVUotmTmTAR3SAmhapdpcWVu2gEY959qgKablMrBDWiiaUdZEN6dai0w60w+tt/my0wgRbwDO7GOEUO2RsjMEUrTGCWlyRh9lKDeyRieDtGjTtSTGeUf6b8B042hZRbfglEZEO8gSuz5gAtIqEbqDTBJokZCAncq4ubEw9FJZia+mGfqkXZYUSA89n24B1uHUPV8mS71z/53ePTxKDWu20nmev6W7eYl3LwWZ6MnGez0gx60mnr0rodoWwD45lpsy9QvjomfyL4Ri7crOHFp8szmD7vs3niwuD8THcb+f35fX/9sHpWzNj1G6/wA=);lineShape=1;strokeColor=default;" vertex="1" parent="1">
                    <mxGeometry x="391.9843597469919" y="539.9957841876712" width="6.4432324759241055" height="18.56633657243674" as="geometry"/>
                </mxCell>
                <mxCell id="26" value="" style="shape=stencil(lVbLctswDPwaXXdIgM9zmv5HZuLUmrp2xnFff1+oGqcGGkPSTaa55AJYLDHww9v+6XU3UHi7nE9fdz/H58t+4E8D0Xjc787jRb4Gfhz44eV03n05n74fn+ffr0/Tzunr2+nHdMKvGdc7KE8oCr/nlRjA/e/K5xlwGI+3gIpQFIDZBxSkoAA5oRQHkNGqAtSMXl1KhRWgR3S6DwgImlHryM5+QiG9vyA6+yWFZC5gBCdHJHyTBgRU5wYuNuQqhWz3AZlQowY09HgfUBpytDeUfB/QCKzL1iKSE0MnNBN0QkgOoKHpoFsFsQPoNugeUDwlZXDTAEZ30ipCYF1pkXtzgq6MZChJHYJTuIagKcXwrt8PESleD1yLoIJct5CKjNK3hJ1sBy3kVRrInB9cz4iIRnu+MiqiNrEF6UWxGKNVX9wckXURFtonVfC2Bn233ZUWIOcFkyQxGSdJ4opNU1qwMTFiQ2kySueGG2GutOLtiP9saeFxSFfGK18faYVNzxtZq194P6VGmx5oQtR+UdEcVRRbsozsVYxtesTQHFkLnaA7P6I6dJiQdXrCNb8fVytZUftWl7NNv7+/VCR7vsen1quvrYtXGsQMO34+xTeL7km/XtKSTedfFrwW3jwPLgPk49/4+TIeDvP0evu/HVdlaR51+fEP);lineShape=1;strokeColor=default;" vertex="1" parent="1">
                    <mxGeometry x="405.0079789394754" y="537.0519639189531" width="3.9840421210492423" height="18.751663926792844" as="geometry"/>
                </mxCell>
                <mxCell id="27" value="" style="shape=stencil(fZbdcgIhDIWfZm8zQAg/17Z9j85U606tdqz9e/tmZ0c0uJ47xP0I5JwEBl59bp8/1kNwn6fj4W39M76ctgM/DCGM++36OJ50NPDjwKvN4bh+PR6+9i/z74/n6ctp9H74nlb4nbmSKZeJCu5vngmZ6jzzNAO7cX8FVKEsBuBKrgKg9oAE8gkCbLeUhEoEQKSUDZDLeWYRKIl8MEDRmHwfyBrBG6Amyu4+kDxxMoB3jhwgYu7TVAsVkFcWCs4CTBEoF4RctKeOxHIf8IXYpikHikAIf+MNUW94AGSSaoAoFIE3AlOyeWU+p2E5S9yfQZcQILVuQOwZdJNoS9Ls3wA5u2XZTIHECqeJ9kDpSaauRiNVcAY1QhdBzeLBli5WazpkSsBLV25uRaqWRyFawTQzRRIQYirJzq5atkBqLfouwqUxLBepthWb10vrWZY6UOAeyKCCtDV625mm9gmUC4Wc3VLJMMIE1BsA2FW9JraVlQB7n3c9oMKhCLEvIM1zBPZ25/umNQ1tVEC2G+fFCC8g398O2hNQuQlVu752DBfA+q0ptnqO5JFmeuIuo9DY7KjY71UxdJV4EntifPWorW++R/dC4t7V3DlIB5cHx2bc7eb3yvX//QNFp+bHDT/+Aw==);lineShape=1;strokeColor=default;" vertex="1" parent="1">
                    <mxGeometry x="400.8679608424759" y="511.8753124585194" width="4.672539772115215" height="4.665236216357243" as="geometry"/>
                </mxCell>
                <mxCell id="28" value="" style="shape=stencil(fZbdcgIhDIWfZm8zQAg/17Z9j85U606tdqz9e/tmZ0c0uJ47xP0I5JwEBl59bp8/1kNwn6fj4W39M76ctgM/DCGM++36OJ50NPDjwKvN4bh+PR6+9i/z74/n6ctp9H74nlb4nbmSKZeJCu5vngmZ6jzzNAO7cX8FVKEsBuBKrgKg9oAE8gkCbLeUhEoEQKSUDZDLeWYRKIl8MEDRmHwfyBrBG6Amyu4+kDxxMoB3jhwgYu7TVAsVkFcWCs4CTBEoF4RctKeOxHIf8IXYpikHikAIf+MNUW94AGSSaoAoFIE3AlOyeWU+p2E5S9yfQZcQILVuQOwZdJNoS9Ls3wA5u2XZTIHECqeJ9kDpSaauRiNVcAY1QhdBzeLBli5WazpkSsBLV25uRaqWRyFawTQzRRIQYirJzq5atkBqLfouwqUxLBepthWb10vrWZY6UOAeyKCCtDV625mm9gmUC4Wc3VLJMMIE1BsA2FW9JraVlQB7n3c9oMKhCLEvIM1zBPZ25/umNQ1tVEC2G+fFCC8g398O2hNQuQlVu752DBfA+q0ptnqO5JFmeuIuo9DY7KjY71UxdJV4EntifPWorW++R/dC4t7V3DlIB5cHx2bc7eb3yvX//QNFp+bHDT/+Aw==);lineShape=1;strokeColor=default;" vertex="1" parent="1">
                    <mxGeometry x="386.8679608424759" y="523.8753124585194" width="4.672539772115215" height="4.665236216357243" as="geometry"/>
                </mxCell>
                <mxCell id="29" value="" style="shape=stencil(lVfLctswDPwaXTEE+D6n6X9kJk6tqWtnHKdt/j5gVSUiJG/rmyzvilg8luTg7172D8+7QdzL5Xz6vvs1Pl72g/8yiIzH/e48XvRp8PeDv3s6nXffzqfX4+P0+/mhIdvTj9PP9oXfE69Wiq6xxL1Nb5hq/fPi64Q/jMcFnp0j1xMycb5OqJlc7RcIVOJ1QilUY0doK4CQcqLQE4KQ+OuEJMQ9IRYSvk4IZf7eh2ZPAjT4lYYSqP28SvBU+ixVrQMIyTMFQ9AsAdGOfC+hqihQNy1zst+PQDIThx6fYJm9LZriUUoTZYOPVECC2FF2lhCB4NaW+SZCoRIsIYNGFZn7eKkZdIWEOYBlUoFo0QBMlbVqmBCNhgJnR0Nyqz6qDhCYvGmkSiGBtGYqzhL+Jnqb4K3ohUltexLFYleoQLRmNVt8QkmizBbPQIG2qticoqqtLFirjBrPUQoW7wqKP5qSqcWC+OMKH6kCfCW/GhyUT61wKJYQUUvk1eDoCmg0ed7EFpId6FL1r8qWkNAcxA3DRgZ8M0Edj8WGlFFaw8qPmCIiVGvyxcMVpNgV8sdsbO+0bEchZkpAdNQs9YX7/MT2PpJtSG1rQceLMO9LiwNMAjtVVrvouxWfkPT8Ij0eH8EUn8TgkVtkzSAbPGrtXEl6e1H/APjCJNXgPRjO1jPZ4BlUrCQ7CNjdS13HA3cDIcc3xFODdSOsV6cwWjzKp5q/8SJcr7a5pOH/++HWI/+/8frweb94Gg+H6Xqy/N/eR/TVdJfx9+8=);lineShape=1;strokeColor=default;" vertex="1" parent="1">
                    <mxGeometry x="589.6147241962933" y="372.5072058233602" width="12.954264491438607" height="74.90677627228979" as="geometry"/>
                </mxCell>
                <mxCell id="30" value="" style="shape=stencil(7VjLbttADPwaX4ndJfd1TtP/CBCnNurageP08fel6q5q0tagKdBTe5MtzfI1HFJa8d3L5uF5vUrh5XQ8fFx/2T6eNit+t0ppu9+sj9uTXq34fsV3T4fj+sPx8Lp/PP9+fpienK4+HT5PJ3w94yRTTBMqhW8//wnU+cc/78+A3XZ/AeBCJRtAThTbMiA1b6EkagUAAkk1gKoAWQZEoRAMoDEGJGIbQ8tUAgCoS80CCtW0DGhXz1eKwKPiQ9bzGzhfKFcfQAMBaAKdPzKqcjtgyrZmLVIH5wfKNqG1UwLxBgpsny/EwJ/gK1yZGPojzp9ADDgXx92Zo5UK4igVm/+S8flqwAKyEggBOhWxfVkoZdCXwVOCmUIEFEoktgZqU4CFfEWiCvu4XBmYq3jzeS2piHs+gfNbGiWaA0gUOgA0yhaQ5izfBPQ0SD9XTWkEtK73oQoXfSZATRXQuwWodIAkKUCsS+pkAkH3NlgwAzJVZCFTt0TSI1IFAPZiN6UBBR2oRQ/oSE3boP6FSw1YUPUMlkq9jPa4DRDPPY2KEYDHwJgL1ykDakwAR41MGbFVXXLUiCNvS0G7QVsbpLemlW3QqsIC6qCF67ZwNeN+4JGTC0BBFrRwTrgrHFQTvZ2FDifz1EA2aK1MREocroaPDvOAGkJVxVauxzHvloJwwtRlbFlLaaqugyplZEF8qdVJWLk4RGIW14DlW/kf6pUJ3KROLDUIQXwVL8caVka6wVRdIcKYYW8AgCZVdrrFIVfqgE3T3mIBum9n0NU6RaMbWvOyuDSmk+UGVyj4Er2FHGGT6qpR7WDX7SejFvqTBd269H9B/wsLOlCYf25BD36OZBkpuw3Q11rbZqKaDRp5opBNEQsMQW9361Ji3JfFk0LTENA7QxsL9gyIcINWrYo2Bi1kBWKk2tLFW0C8FvaF0xggIFPsPksVvfdoHWzhEm5NqVdZavDFRAFu/qtioqEwAWyl9d0NbdCTS7Y9GW9uGrT74qG1b6hwb/0u9BsAvfj1Geppu9udv2Jd3vefrfSv8ycvvv8O);lineShape=1;strokeColor=default;" vertex="1" parent="1">
                    <mxGeometry x="585.1895217567055" y="371.1749046552636" width="26.992349706809364" height="18.04937152766888" as="geometry"/>
                </mxCell>
                <mxCell id="31" value="" style="shape=stencil(lVbLctswDPwaXTEkQRLkOU3/IzNxak1dO+M4ffx9oapURcjaTm6KgrWwC+ySAz+8HZ9eD0Nwb7fr5evhx/h8Ow78aQhhPB8P1/GmTwM/Dvzwcrkevlwv7+fn+e/Xp6lyevp2+T79ws8Zx5mCn1DB/ZrfJJL058Xnuf40nlf10ZGrXX1g8ggQyLsOwIWkAECiKH1HkVzYB6RAqQdkoZj3ATmQ5A4gpbG6CyiqSegARSgDDtWT4x5QiIFKVUmXHlApgZZqsaT1m0H2Ad7p5PpBVG6zv/+JSrlfDe0ygEFUlT32ACEHetIGpJdpooUGUaikHqBNOgBg4n5yKx3uIkTsrPUTyBESKEdLooDlyKW1vJIpIkC226SDyECmrHPajFoAaf2CBfgmwx6HahxRqQLPCbdNWDkCTU4tGYyFBOaGjtrsxmRStBuVONqWHOBQI3m2pD02hBgHOcrIEHWzfBpuKDdUdbN8kRLisOTQAsgUUdCkRnG13n9luA9wm2SqzYR76WqXb2F1fzVqo7gGgCT7MIA9eRPHnjIgHTxxD8j6TbB8PrZTcznlEswlbbiv50oRqCoU+sUIEYbM5nSQ5r+98t4Kmkhg7VTP3ggRXhrYyq8nNrBNtivqofGXPG/lDmad12ARU++Bkn6TXPjEUXKpmvqA6nML/1X/QHvWnytWHlSv6otRvwA7siZE30+Eq/PRK+f/6/Xh3/32ZTyd5uvx+v/2Pqyv5rs0P/4G);lineShape=1;strokeColor=default;" vertex="1" parent="1">
                    <mxGeometry x="630.1273105530888" y="395.11516782538456" width="10.343873817229678" height="29.039296402832633" as="geometry"/>
                </mxCell>
                <mxCell id="32" value="" style="shape=stencil(lVZdcxshDPw197oDCAQ8p+n/yEyc2lM3zjju178v7g32IZ83k7czZkFa7QpN8vC+fXrbTMG9n46H75vfu+fTdpIvUwi71+3muDu1r0keJ3l4ORw3346Hn6/P8++3p/PO89ePw6/zCX9mnCqcnFHB/Z1XClL+v/B13r/fvS72Z0Fww37x8EoAijJekDwKA1Q4PwC0ovj7gCKQOKbQVtx9QEsxjoDqEOQ+QJwNKSdUwpIESB4BAZmEJAU+3iQd7wOiIo+0aoYSWlNGMDcoIglJmxCSBQQCaIWL1YbkCEuloIYRcFlZBdTUObnQ6pFI0rUiGUBEJlpqAB1DygUuEYD2FC/i8wgkh1IRDEBQCqW1GocmZEJrU461tEIrlUb2FpCIH2KGTzYkIUk3eUe1SXuSdDOQEV9xkA8sOiadm/jYDb4HcAEIMtGSNPEZT7vuwXWWBGoaWUFgdRAkYyClatXYhbAAeKLWa9taAFjXaEJwNxYNzECywpIyQOmNcVEHJbR610ptEIpKeuXnEc2kdZRfaz1CeIqh99IOWFy6HlTrNKYPxN6s1gG5y3PBLLOEb/19VHgKtL16jzoCROgTceO5dgLL+aYMBcoyRjF2gBBxJ+ueiEC2e2ePD52ve/zHsWC+v9nrU0ZEHevlqPtby6ve7GdkRtefjcX5JP5YIMXGT85PyVYr9LFpvRld1Ljgn80Xsffna3lZ/J+dVD/e3z6uY/HLbr+fp+rl/3aMbkvzCC6P/wA=);lineShape=1;strokeColor=default;" vertex="1" parent="1">
                    <mxGeometry x="641.01373165982" y="401.9999968803479" width="6.013831294257898" height="20.446002340033147" as="geometry"/>
                </mxCell>
                <mxCell id="33" value="" style="shape=stencil(fZbdcgIhDIWfZm8zQAg/17Z9j85U606tdqz9e/tmZ0c0uJ47xP0I5JwEBl59bp8/1kNwn6fj4W39M76ctgM/DCGM++36OJ50NPDjwKvN4bh+PR6+9i/z74/n6ctp9H74nlb4nbmSKZeJCu5vngmZ6jzzNAO7cX8FVKEsBuBKrgKg9oAE8gkCbLeUhEoEQKSUDZDLeWYRKIl8MEDRmHwfyBrBG6Amyu4+kDxxMoB3jhwgYu7TVAsVkFcWCs4CTBEoF4RctKeOxHIf8IXYpikHikAIf+MNUW94AGSSaoAoFIE3AlOyeWU+p2E5S9yfQZcQILVuQOwZdJNoS9Ls3wA5u2XZTIHECqeJ9kDpSaauRiNVcAY1QhdBzeLBli5WazpkSsBLV25uRaqWRyFawTQzRRIQYirJzq5atkBqLfouwqUxLBepthWb10vrWZY6UOAeyKCCtDV625mm9gmUC4Wc3VLJMMIE1BsA2FW9JraVlQB7n3c9oMKhCLEvIM1zBPZ25/umNQ1tVEC2G+fFCC8g398O2hNQuQlVu752DBfA+q0ptnqO5JFmeuIuo9DY7KjY71UxdJV4EntifPWorW++R/dC4t7V3DlIB5cHx2bc7eb3yvX//QNFp+bHDT/+Aw==);lineShape=1;strokeColor=default;" vertex="1" parent="1">
                    <mxGeometry x="643.8679608424759" y="386.8753124585194" width="4.672539772115215" height="4.665236216357243" as="geometry"/>
                </mxCell>
                <mxCell id="34" value="" style="shape=stencil(fZbdcgIhDIWfZm8zQAg/17Z9j85U606tdqz9e/tmZ0c0uJ47xP0I5JwEBl59bp8/1kNwn6fj4W39M76ctgM/DCGM++36OJ50NPDjwKvN4bh+PR6+9i/z74/n6ctp9H74nlb4nbmSKZeJCu5vngmZ6jzzNAO7cX8FVKEsBuBKrgKg9oAE8gkCbLeUhEoEQKSUDZDLeWYRKIl8MEDRmHwfyBrBG6Amyu4+kDxxMoB3jhwgYu7TVAsVkFcWCs4CTBEoF4RctKeOxHIf8IXYpikHikAIf+MNUW94AGSSaoAoFIE3AlOyeWU+p2E5S9yfQZcQILVuQOwZdJNoS9Ls3wA5u2XZTIHECqeJ9kDpSaauRiNVcAY1QhdBzeLBli5WazpkSsBLV25uRaqWRyFawTQzRRIQYirJzq5atkBqLfouwqUxLBepthWb10vrWZY6UOAeyKCCtDV625mm9gmUC4Wc3VLJMMIE1BsA2FW9JraVlQB7n3c9oMKhCLEvIM1zBPZ25/umNQ1tVEC2G+fFCC8g398O2hNQuQlVu752DBfA+q0ptnqO5JFmeuIuo9DY7KjY71UxdJV4EntifPWorW++R/dC4t7V3DlIB5cHx2bc7eb3yvX//QNFp+bHDT/+Aw==);lineShape=1;strokeColor=default;" vertex="1" parent="1">
                    <mxGeometry x="624.8679608424759" y="386.8753124585194" width="4.672539772115215" height="4.665236216357243" as="geometry"/>
                </mxCell>
                <mxCell id="36" value="" style="shape=stencil(lVZBctswDHyNrhiSIEjwnKb/yEycWlPXzjhum/y+UBXZAWVvJjeZxpIEdhfEwHcv24fnzZDCy+l4+Ln5Oz6etgN/G1Ia99vNcTzZ18D3A989HY6bH8fD7/3j/Pv5YYqcvn4d/kw7vM64RLlMoBTe5oWqVNL/le9z/G7cf4iPlZo4gBSSfBvAlQo7gK2EeBsgSkkdIEV4pSokwQEaFXCANpLq4gNVkEFLFLiLDwHEZ5LYxQuKL1R9SRPFBuKVxN8nU0P7Wzn8/koM8o3hnN8CiHajAk94l8AZINRQSe0GyQMaMa5R9pyZKFQhCbEDMGWgomYi0x7wzsstGaWOtkQKktZK0VdpEh7IQU3Y3pzmvgqUoZlK84AMpTQBvFRjgNqwK7HXXqEClKFlyfDsfhLAgippdyFKSHlxye/itQi837ivUKCEdReku4+g/bW3Dn/mTe767yKSW/HNy9oI0woBHQEmiYoz0M78ugj9OmAtayOFoTXbypoBJf1VgEZizxpbSwNOK7l3Wo4UgHGyUPUNTAT2I+u5xZe1MjR/5N6apkUBTFuP7qQ6dVngHVNO8klPfRwQd342LtrDL6E17dgfgFrqioWLGK8XlZonYdIiYM28673QZHnar8aHFQU2LgHdWTW8TqdRAzCwemcVU2y92TcvNZGgl5ySb9Ya4LP81WHw83j7uEyeT+NuNw+uH//vJ1Vbmqdcvv8H);lineShape=1;strokeColor=default;" vertex="1" parent="1">
                    <mxGeometry x="340.25606636831276" y="379.65240841350806" width="21.698988962999692" height="14.096232596105438" as="geometry"/>
                </mxCell>
                <mxCell id="37" value="" style="shape=stencil(lVbLbhsxDPyavRJ6Szyn6X8EiFMbde3Acfr4+1JdaGOy0Bi5rWXOksvhDLXEh7f90+tuCe7tejl/3/06PF/3S/yyhHA47XeXw1Welvi4xIeX82X37XJ+Pz2vv1+femR/+nH+2d/we8VFcrmDgvuzHjhK/t/B1zX8eDjdhHtPPqh4OSlpDgiBWAPkJMY5IFbiqgAxUXBzQC4UigKkSoXngBop6wzFUclzQKsUdZOqI25zALdR8QZo9wBNZ2iOHOCBmZLO0AI5wIMAmgEkaoAHATBrQBvcTwG6rewp45Jq1IBEFQOCLomFGcC0tLXq4euvALMkACMH74QIhJAKqk2Bpo8LVZ1CkkZEtcx30oCCS8rEXgPiPUA1VDMUtQCaAUiRQEH9G8z0RUxEGU28EUS7w4ORHOO21qHIG402rNGSbYaMPpotcc0Pq5oB7EfHuxrNlgcGw3czzdtsYMPvvmFEGoeops6k7Vi4zFikZkN02aKSxF01c71I1FfZB84CGH3DZwHSdmtlYsegpBr+Y84TA6pzHorclhZDyckeNWYpixL5t+xlrzMksWMkOcubLGqkOG83UEjDbSfxQbeo3yVATx1VPRb9DcDF3Ngdm9cztElHXnPsy/D+SbyRmo+UgBC2jf+xe6C/SD1aaBXSJTrX9GbygC2xWx0uzQfN9ONStxU//Hg2C5orB8MDpWrCEVOfvNTeDZeHj/vzy+F4XK/ft//b+7YcrXf1+PgX);lineShape=1;strokeColor=default;" vertex="1" parent="1">
                    <mxGeometry x="362.5359858421648" y="583.5282991569525" width="60.38629365840643" height="12.036347332749301" as="geometry"/>
                </mxCell>
                <mxCell id="38" value="" style="shape=stencil(lVfLctswDPwaXTEgwQd4TtP/yEyc2lM3zjju6+8LVSPFhKzN+CbLuwS4XADiIA/v+6e33RD5/XI+fd/9Pjxf9oN8GWI8vO5358PFngZ5HOTh5XTefTuffr4+T7/fnkbk+PTj9Gtc4c/Ea5VqGlmR/05vClX+/+LrhD8eXq/xTFI6fGCKgKCJUusJQiVsE6pS4Z6gJAIIllIfIWYqcZtQeF5vJkimkLcJSUlrR0iFWt0mSCHt95AbadommOo5d4QaqJZtgmkStSNohLKGSCF0hBYoggiV1OEtJNjCosiCb3PEm/g8C3KFr+DUEuX+0AIzMXCeUGg+QAMBArXs8Um38UwteYEqEIhnuRe81R5cn3sPtUIF4oM7gEwZmJRngy34BPFmSGcIoQrwkdoKHwE+Ucwejw2Uq8cLwFtjW62voOorlZU+SH+d++CV/qiVWleL/nwV5K/ETs9KDaxfKTr/K9xvmcv7yv8ZdUVq6vEN4K3tywrfkH9klU+B/lznz6DemVL2+gSI5+T1Z7Bfw6/qsYE5xpSdHxIprPf78Nk3UDX/oBETfEevjQRs2DKSvgIKVlTYfxtkmwogpRTnCl8GcYQ9N4sXSZZjv10E4l009m3g0nFO92UwTlqQkokY+5SsMYEAWoj7AEIJlMHYlfsd2I5BWzHXuL5ugwR9Aeb1+mgMW1dzc+aT9W0qyj35K2V1eAV6WleIva3DXBhbeDc3IjTE1WfJx4GhKrhJaKCQ1xklODjWO8YfBqOifVnaaEDr33uH+BRvDx8XlpfD8Tjdd67/9xccezVdjuTxHw==);lineShape=1;strokeColor=default;" vertex="1" parent="1">
                    <mxGeometry x="566.2375887448977" y="381.4422261854054" width="36.30903129564285" height="43.81469729831019" as="geometry"/>
                </mxCell>
                <mxCell id="39" value="" style="shape=stencil(lZdNctswDIVPoy0GAP/AdZreIzNxak1dO+M4bXP7UNXQEUEJtXeK9D6TAB8AZnAPb/un193A+HY5n37u/ozPl/3gvg3M43G/O4+X8jS4x8E9vJzOux/n0/vxef779WlSTk+/Tr+nX/g7c5Qhy0QxfsxvGDD+e/F91h/G40LPATI1egGmbb3zgK2eEqS0DfgEjhvAYV1yFYgMlBrACwTcBlKCEBogRgh+G8gELrYxc32zChAiIDZEdiDGEoLgFSCQxAgiA4sG0JkAtXnNCZhNIPsWiOCNFYQgKiBAMtIkvlptAbDhDYmQnQbQ8IaUGNI9QOZ6TDduafrcxWAFXZKYY5dWy33Xernx4Mrn2HnJssa0gaSBlA3AQ2iLOmfwVlpJd40CiOUl0eZb1NQ6ETpvZLNviNN9owDBch92ZsqmmUoFqUZT8spGXguA3VF7GwidmaIBTDGothFqVJtZyhqwjno6h66C0FpBuoLwdZObZmK9AlklV+zaAcFaoRSE6LSyYb67gZLWIDroZHSB5GtFXmeQM88hol4hXvvC+uD1EFvAZzNLnMG1FefY7JXkQdoYyu0DjaBDNxQhGE0D9Uh0dYMbcjWjuSZgQ+5Iya2mSrpuCLzRtBlCK0cQYzO+TuIvuQ+GGfREQCBDLrrR2a2XqDrxRr2rV5vFdqzrVNfasQ6sdX2ZmEHprUlQXEjt75OZzXvvzP/Xl4evC/rLeDjM9/vld32hL6/mfwbc4yc=);lineShape=1;strokeColor=default;" vertex="1" parent="1">
                    <mxGeometry x="447.4192620270617" y="391.4296122352398" width="15.60599469830504" height="58.233391545660425" as="geometry"/>
                </mxCell>
                <mxCell id="40" value="" style="shape=stencil(7VjLbhsxDPwaXwm9KInnNP2PAHFqo64dOO7r78vtQhuJa0+aY9He1rJmxcdwyNUm3r3sHp63m+BeLufT5+33/eNlt4kfNiHsj7vteX/Rp02838S7p9N5++l8+np8nH8/P0w7p6cvp2/TG37MuFDIpwkV3M95JXuq/vfKxxlw2B97QKTgB0Ap5OptgBcqdQBUoSoAUIhHk4SpFADIJGUE6AoDAJOMJkklB5z2iXKwAHEAEEjyCJDm1XWAJx8sQMJtgJAfXfDOkQMmFQrFHlBA3pjY2f0B7I+rJFRi4ECgYiKkeUdJW0U0UwLv95SN/dyYe2N/GXkti0dX9y/RXuogU8wonoGH/Rzg+5VCKQ4ATWFFAVWSjhkoVMD+lMmPHmMC5URFRqmgDChdA9WRoppzFwGllWBjDSTVIhDS1xJZALGVxZ8CEjFIwmTSqEWJoXgpiWXMWiowqspivwKgupREzphUyaMoaRCLBTjgw6TPyZrEwKRarRgptzICaEyyDWtCJuVmQJc4D7ikgDqSO6ngAHmpS7F05IMmiW2EyVFCifM201FgQasAGclWACPycVPE/gSgecrWmFY+IC7VFTU0SriAjMxPeQCJ69pYn2rkhNh5YSITsqnaME10RV7nNn/0BYEAqXGtLznEjbDi9xtF7Ro5e9lAdK2tInthAuzTgoirGhWQh3cDim9R7zpcAlrJmcJYQTqYRdCCIlu66pyF9F67dDUmCUU0lYjlEifYgnT2DOu5Ac0x/8fhf2QcNvv/rnGYbQJUcAJq0Nbfwq1T3GJENtOng2KhnDMW8TLMXQfENhUtANVg9KGarOCxSiAyie1wyHiE1to3WZgkEAHE9hEFeEQ7bd9pdQJwWontxQIKMEk/S6wPpZ15S4NtlCr8sgqr9qyZhicUSw3lUkaXHu++JXkboA+vlzJP+8NhvtPp/7eXOLo0XwDF+18=);lineShape=1;strokeColor=default;" vertex="1" parent="1">
                    <mxGeometry x="436.92315761151235" y="380.9283642486496" width="20.99914885807334" height="32.84749235603499" as="geometry"/>
                </mxCell>
                <mxCell id="41" value="" style="shape=stencil(lZfbchoxDIafZm81tmXL1nWavkdmQgpTChlCT29fUWpqC/jb3C2sv7WlXycv/PC2fnpdLSm8HQ/7z6vvm+fjeuEPS0qb3Xp12BztaeHHhR9e9ofVp8P+6+75/Pv16bTy9PRl/+30hR9nTiqVeqJS+Pnnn0Kx/P7n4xnYbnYDUIRinoBaqOp9IGcSnoBW4Q6pkOgExBAohPuEkIYJUKEK1l++djlRIMn310fieb05oTDwEaU4redALYLvM7E4i0mAAaz9dQewg2qgOotmAIMTNabcJiDbJ4BoaiaU2UcN75CIZ5WrUgAimEY8R2qtJAKMVi9bFQoJA2kGMiUQ2nakPAtdEwnwkhmdZ6FrpNQAYKHkgH8I16jMRxKlBrykkVrzgCKg+OypOFjVSsyV0RWkj2r3+gVgSkC4oT4Myilwk20hTmrpZeo20Ci6MzVKyOrS3T7Ed0YZlLwQFl4JBZNSKR4owE1NuhfHHVDKcT/AaAPaIZBm76WIc7Rkr0MBCWGA1yHD+DZA5/ZjwRQrsCGSzDpYuAqqAvlGjiIbrP/lOVpPKYdCw2pv9QBM6kwh+iMxCm/pPXwwGtWZdwMmU3B1xgAQfMLerfni6NtdN/jybY24gmjl5FPUGnEAXrJBw00mHCmD0Ei5J+Q4OSCgXLWgBqcrO5LrKFbQGU1X12UmQrdy6W15CD5U77ONd25cUjjw5UbNAZUUJJApreqBgIZW9qXSdECFzF4zeyAiQHtRGQFQZiz6NXqgICD7+ceMZjQVm4nOhoaB2hv/IByac8WEc3UpwLZrkRPddJK6Vfd2ELcDw1H63feZ/wDs4e/16WWz3Z5vX+N7f92yv85XNX78BQ==);lineShape=1;strokeColor=default;" vertex="1" parent="1">
                    <mxGeometry x="445.57642399320594" y="455.2092556825489" width="14.691878013236646" height="28.625644981753794" as="geometry"/>
                </mxCell>
                <mxCell id="42" value="" style="shape=stencil(jVbLbhsxDPyavRISqQd5TtP/CBCnNurageO0zd+HW2NTU1lPe5PXHPE1Q2qSu5ftw/Nm4vRyPh2/b37tHs/bSb5MzLvDdnPanf00yf0kd0/H0+bb6fh6eLz8fn6YLefTj+PP+YbfF1yuVOqM4vT28aWlP1++XgD73eEKUJmqRECirLcBmqmUAHB7BvaNNA32DdxvmTQH+0q1A/tKNmRciBFAqWsAuAcFEeWUKMUUxCgbcGFULObAi9N1QCeJHlolbgAg1FoA9Lpcsd4GHcvkjVTgQd1DjwCva7kN6EoSQ1ImzgAgVG3MwUDnmpFG6rUGudr6SO4qpBUA2sKEBVASMei0e7CYNDcyIIeexrK6QJF+eqEe9eA5ozbY6CDBgLRSksE+ASKZF4SjGKgganv8kdo5Ywc6qo0zdSRoGwUtZVHHLYBGLRTnLqiRh8RDDzIGeFEjoDOUp1e1RYD6WAXi8baVQW1CBnixDhCwGbxxEWBMBYSUO/Uoz6vJuY6QETFPTtRqskgNa1RBH9qYs+G+ybIrr2ZeBvFkqtHeJxgSg2snMtXHPKL2p8VT8TZ3FsWJWnx5gnnH49qRtqh71d4pEYXDiofROE5nKaNVm5d2flCowwbnT6z+x3vnPx5Ifvj7vHra7feX19n1/+NzzD9dnnJy/w4=);lineShape=1;strokeColor=default;" vertex="1" parent="1">
                    <mxGeometry x="448.13258890802945" y="472.4449919986223" width="11.25118283578604" height="4.420518244441155" as="geometry"/>
                </mxCell>
                <mxCell id="43" value="" style="shape=stencil(7VnLbhsxDPwaXwmJkijpnLb/ESBOYzSNAyd9/X25NbRdcr0TpIcWBXLzQ1zxMTOktLt09XR3/bjfcXh6Ph0/7b8dbp7vdundjvnwcLc/HZ710y6936Wr2+Np//F0/PJwc/7+eD2tnD59Pn6dnvD9bBeZWp6sOPw4/8KRIv/65cPZ4P7wsDQQ4mIMklDswKBRi8agBAp120AdqHYHycQCDbrdQYQkQAOp1qBRT9Ag2CxVzRLaQUMUa5AoRJil2q1BpoLqUCkFa1CogCzF4oOuAusQ8/B4aYBiYMrRu5QaMAjUxQfNedugU3VlYBJQN4VesusDCchRI24eFxn6I9afwsSIC5miI48mGRiw+IgVWR0UTZ+XbQicsEH3wEuJEgBeZuo2hpypgh1yoWyRWgTyOSu0HT2FOsiSCkqyMbRIuQCDStkCQwIVUGhJJHaHnAa2LhtUajZLrPQEMUj3qhdVMQB5FMourQI1TNd3G3Omhp6vMmyR9II/igu2AZAAtZiobqusJUDPL1TFrQ8o3pVA6nog2VXFwq/PoGAtUKwu3gz8V0gmm38ebevyepUSm89Mgp7PnsiqHfj53ZGGGtJGnRRcfSMsQKvUnXapsiA15dHxFqNFADTuinhbstzGOLPRcGYMLIifQJZ6pepaSIKK3ePoALNBpwLkUXEtlmeaabSDOpCsUii0UFdTJrMthGKXARVUi4rryxViQ9tkcZ0fi4saRBu0OgnlsY2JbtGaUeHWeipljCdbWcqOP2kwfKsO4naIEH1aacc4NSgA3ypJTiKFh4hsaRLbwunoHJEIrGdtGZ1uSwWKc6mP+X7LwGVJ8xZBltSlvppT0UCiQYsDXx/j+lZaqzXQPWFrEMriDdBAUuesLw1ADAo+p2QaVUU7rA8YGhXYQeni2vkERzTBtKERi2G7ItVoY9hfQAON/9PfjtMCOa1BNwfvNJrS5kzidmDM6eKDniiKdnitQSsUbUPRabgBl9p6bsMnw2lQcocMnWRQ0OynYT2NZsSHt9Hz/x89gT9/Mno65v/j0TP6mSpWCogzKkW2wsqZiFpzGSPXTGOMORU759JEOySn0d/MtQ5vtdQBx8rFuHv5oB09D3qD11qprDpnh8fgpHIrPmp4Ndd8XysM1W66g3GV6wONlw3K6DEzuDucLy7fRwJsvN1HDoq83Uf+3fvI+SZ+Jo8KNyhaom6fr4rQQYLCIMrcRyrU4dVpe2r8wJ8VSpnh2Tn4YycHqKnRY3QadBCTPYCiYLlb3eEViIfij2uKcXQnJP5SUddXiLfM3h8kE32MZYv1CA/aht199iQD6AJm1Q9ih6Pd699PvWygH36/Drs93N+f36Yt//evz/Sn86u39P4n);lineShape=1;strokeColor=default;" vertex="1" parent="1">
                    <mxGeometry x="460.8594491590161" y="460.4682314538363" width="32.53429599680726" height="22.98126510053453" as="geometry"/>
                </mxCell>
                <mxCell id="44" value="" style="shape=stencil(7VzZbhw3EPyafSV4H8+O8x8GLEdCFMmQlevv04zM0bB6pkYLCI4V79tqxZoh+6g+SO4pvPty/eHz1cnbL48P979e/Xnz8fH6FH46eX9zd331cPMon07h/Sm8+3T/cPXLw/3vdx+f/v78oY/sn367/6M/4a8nnI8mto7y9u+nb6yx9t8vfn4af3tztxofvLEBxicyPgZTcHzN++NTM8lN451xfn98STh/Z4LbH1+ryRnGx7Q/vmUTKoxPbHwd013Jh49PBeVTyPg21PM8n0rkL+PD/PxA5SPj87zeZHyj4+ss/2Jy2B/vrFULsMaTFWwhvKlMpmpOTqyEGJFetCumECvVUnXNlHiO2kRv/iy78N44pggxPIcA5pnNmhZwSpGormSUUve1Sn3ZqzcEIqXoTUgKQKw1LIawFiuRkgCc0kMlphHcxqITB3gAWJPJooPoYWYMt8htD/D1eStrDYQzBBABkIwjihNAAIA3hb8BAXaI4YVTKqby8bDmNPTyQqGGIzWj1kxkhqfMQqyC6UzZneM6LibNz5cFEQXEpCiPkmqKg31WYZM8Py309jyfTMZnaxyOD8QvZXy2ML4Q+WeHaYjj83EjADzbA2NTGV/m8YnKU8Y3tOdE7DNLGgXyt9QlNwCeJgp6Rj0IsjeoJQutsDCrZSrExXI7rbRudWdZhbglCyDa7ASQWbopZpARYBnTNXTMHkDIlMTQSkYAM9U2ovY64BA1uOEo6zBOni8iV89nlifEA88XVybUZTFxcZVSlx0Be2V2jo5HJk3DNXbG6+yxkFCwlZ/y9cJ8Ki2g1HITDXxKmtHYs5RF16pswVFOUaYmlknct1Pa7O/ZJOYqHmsn50aasO2MSVFWHkntdpiU4gTyRUvjfEpDIAsgUm+RQBnA3ZNJvOCt8xpESpaTogeOK+ObXRYFoxCPZMRuMZmQdMfx6GehyAzUMgTgZj2ETMuhDpjXEA7X0MBx3Ogs7AHAlmKglbUAoDMQeU4qmm4AKMYSxfVeSEAAm5IAbEZAI/4v5h1nAngO6tsAneeIoJl5W6wB60EN2EZ0XADeeJb6NkXAPHePdbDQakqF2JIA7GwalYcEkTqwdqnURQUAUiqJ5o/dcuZFF08LkJgxMuRGPa4DZhfNaeh+b0rI9hJ8+BqgBuwewjRdsNpPhaZSojjoJ6RMg3PySDM5jEdsA0RK4ECZdl1yxH5oWZLc7a6LR2stnJdKwfggtuSJTwugJASwZlY35tkfSqZkLIAMi66mkPhQKhqfuKhjvak2csYFEGjxIgA/U2XNfEoNxVob7YkIwM503zxtBMmiIRNovOgUQJzX0ArlJQHY2bxbHaF+zzQSTKkdGR+8YdW+3XaIgJ2FtrjILguAIvJIcLazxIBbCoX3y54TsMWpKy1sezOqIIC1v3o3AQBlVK7bgIhxN/NqXgAZ1hBoVBQAqLpndcSD+s7RbH2p0hDU3zDr4YCN+xrgDYFquktpZmPJVxgbdz1AhtVozOqahixxadTv2tKsuIOUTABRZYnMR0PB5DsebMkVbMMIwLEiKOJOgQBYk0TiOPB9z9ZZZyiaCoBMPa54NA2pBVk6I0ET9glDpsl3icj3sgZKrhHpWyoOVtqXpQm/ALIJLFAr1hDzZl1MAQCRScLPMixZA9THvaPG9BCR73vCxKQUMHcQImPMJ5qGMisvRcs2wI16ewFEWr2WZUd6xXws6RMAppWFbiILAFIBSTTZdoQGHLCGnpJUr56Zhlp0aLQXq8UqDpTZopXixEVZ5adNQwA0NVbGJ1zIYpw2706V3EXBgWKk8UG7qAQU1r3VJCBsyypwTTOJJyeayDKvjzVV9qKFlyhAxnk5lfE6gB4fYA2BNzaaeoPnlV8cAWpFAoxbexRtCGB6ENtE5gu0prmkoZc09A2loQEbTJJrsPpYZuxUnKaN74hboBKTmOLeTCeEBZT/bSeE9ym+QScE3vCfd0J6wuRxEQcOAQ3UxjMsITow1xbGjsGle3/p3s+At9e9t9i976okDiRxHAK1FEEs6Xszu7sc8Bq7u/wk0WV39/vY3YXjU7LoAxLApM8Og99O+hICejeSlShLS2xlfPQsN7YpxB1YALqchvrRTkMRMv2uTkOpc30HNaE6N8gP2+uDic541tRXJx/tILA9Qvz2J3r5YdLLid5Eue3HPNGrTqp7z2+pqKPw3tFIr8/aex7D9GH+fsiY+fLllspX8/4Gt1RYT+tyS4XrWF2/cvTanL7f5Wh7TV8gczSG6Btq3JP1FTg3+qrb49Udu8vlzikjulzuXNj31S93egTQy53q2vJBuqnvRXdfYN1KdfH62JmTKs3oYX11dfxASvpuepfSwd4RrCEcbTZZpQdWUsjzUNOOnm7rWSwA7OimbAM0B1d6OMd73IIQB6LbWR5b3+Ki7TyA5duKakqF3vvQa460dtkQ6mj8vVBrjh7M0WbBi+Rzf3TheLx8eP6Fh083t7dPPxCx/j/+IoR89fRrEuH9Pw==);lineShape=1;strokeColor=default;" vertex="1" parent="1">
                    <mxGeometry x="430.76890177443875" y="491.5163941721021" width="74.4291536373903" height="12.872124690096143" as="geometry"/>
                </mxCell>
                <mxCell id="45" value="" style="shape=stencil(lVbLctswDPwaXTEkwRfOafofmYlTa+raGcfp4+8LVSNbgKPt5CaTuwS4WMAc+OFt//S6G1J4u5xP33e/xufLfuAvQ0rjcb87jxf9Gvhx4IeX03n37Xx6Pz7Pv1+fJuT09eP0czrh98zrQk0mVgp/5hXpVNK/la8z4TAe14R4R4iU2jahMbVgCD1RBhFqpGwj1E45bxNyIbERSqRYtwmpU4+GwIkabxNiotoNIVaKsk0IVCyeqUN4aA4eOoQXA0+UQPZhKeg1eai/7rKBB2pAfZVGHDwVUKylMjd4iNvw4s2jcJBMo+hzZ5BMJ04Ojsok/vRIFeQulK0JErSxEGdnggSS6dSsh/Niog1lanPwCk6vXplCMaCquoYq0ATXm61OR+1Hwi535EgtYnFwdHpYOvmmO4PhoQa0jkxwXqoBrTJxGSUbVw3WM4EECKmNnx2cwelM9a75wFWLV+Z69w3PVJ97Aso0Ep8MUqaTeCFxa38KrtvRKhlVLOAabn6qcoBTuGiPWHlyhxGa+tjavpbliI+vrMa1Pd6EKpo4Ouptp/QODSGyVPT651+g4ZTQbEpSYYQY7vpLGQ2HEJeTlgaNZfGV0ycPMqpuu0JMK0jX5kutMdFMma5YPAGNOJU930UQFEFnoI2wUvpjRvJjVEN0FCIuZlsRCiJowwdPiKByn3+s/p+gH7e38ct4OMxP6/W+f0vr0vwO58e/);lineShape=1;strokeColor=default;" vertex="1" parent="1">
                    <mxGeometry x="445.16172923296335" y="394.1872772177071" width="27.34060700782379" height="49.31444819532521" as="geometry"/>
                </mxCell>
                <mxCell id="46" value="" style="shape=stencil(lVfLctswDPwaXTEgwec5Tf8jM3FqTV074zht8/eBqqEswvJOc5MtLEEsFktqkIe3/dPrbvD8djmffu7+jM+X/SDfBu/H4353Hi/6NMjjIA8vp/Pux/n0fnyef78+TZHT06/T72mFvzMuCZU0oTx/zP/UTJz//fN9BhzG4woQA6XQAUokH+8DQqWQO0AWig4AEnHpAMmRQxkclT6D5vR8HyCZvHQAKVRABnEkPUvCFEAGH6jUDuCFKqDVBZrerQAuNqI3AdwqXGqmVGB4T5G0irb3T8Fsn5y/H56sJhzUkPPk++WZBNTqlu5c4xmxr9R5Gw/I0fZWNvERxeuIiKk3IIGyHQEP178VtE4pjjcTE8lVsP9Crl8/kaB6hUIv/0wigP9MIZj4CvqrdOeeT90g0kMgjnZ94CjF0pOb/rbLtdUqO0D8TClb8mE491rT3gItO4q9lD00z9gG76pMAaU69YWeGlU+Yl4n3dnJApM+2Yxdn8H2fb2dRAHrS6RQTL2IfKmtvJWx4clKvdKkSftufPhCfGSqZv96TgBjjtnKRzMgL0w3GZTjjLw8Ni9bHY7InTPbnoVCGTQtJ3t26SYRoGgGM+++na/bgEyll2kJUBe1tg0s16AIbwSOb+a4JsqgEZrCmK7etNCs6WvptVQLNKKqVwC2gApoqsuwLIAK3UV5dWwBiKbiLa8r4rbFUZphrVKgwyMHqyYFoKuQ6tX4uwI8OM5StiamvCY8Qq4/z7SXSK9fvoX/B0Afrpf+l/FwmL8Z1u/tR4L+NX9gyOMn);lineShape=1;strokeColor=default;" vertex="1" parent="1">
                    <mxGeometry x="446.2265614035241" y="393.90505383406344" width="9.501174472961111" height="48.82436083584594" as="geometry"/>
                </mxCell>
                <mxCell id="47" value="" style="shape=stencil(lVdLctswDD2NthiCIPhZp+k9MhOn1tS1M47TNrcPNKocA5KgekeRDyJ+DwA7enjbP73uuhjeLufTz92f/vmy7+hbF2N/3O/O/UVWHT129PByOu9+nE/vx+fx+/VpQA6rX6ffwx/+jnIBQhiEYvgYN1qGOO58H/GH/niDj8Co8JWA4jo+TacTvgQobR3PkJPCcwOiO/CpAbOnD2p7E0Jx9a+s8JTc/8vtVeFjgZDX8chQixLABtURkAiUrAUIQl0XIAbSN9C0sYxvEHSI4+SzZQ9JCDQeITgeYnGgDkFwI5wTlGTwwdGnMMRs8Ijr+JqgscH/y6nlCEeo1l728HXuz+Log2HGyQTBv8DkHLsBbgS1KXyefrDsoAyJNIddg0uGpvWpgA4+y/Vk8F5J4QyYDd6jWBJ9itE/OQkkBGhk/OPiGQob/6Ojj1SQpuMrAXHsJVFXE+BahJftJUBdc9HNB5ZjSzD2CIkQLWE8/xeEagkfHHsr2vwMkBx8k2NTESE6/pEOly0hyYlvaxNfv+LFTgsTvOGLBNzj75146bhN+wfTVPLWKqJpeuLR6pRoYWQ1GVemorecQjPKSJJ7XYyl7ekasdGHpWvQXY1+LrA1SUgf02m9NaoIL3Vd2ZiFBi9pozeGLRFAnXmtuL1MSiMnK9Cc2s7R5p50k+IkXyoTd68C4lZv4JJuOhMo3rxCkHW23nTE5ZEo2wlnSwKvOv+nUhjtkLBhdpkFwvcrzeLgBy7YsXEjM+6d87fxsvh6VLz0h8P4Jrk9t48Q2RofMPT4CQ==);lineShape=1;strokeColor=default;" vertex="1" parent="1">
                    <mxGeometry x="445.2041950163184" y="394.90977838488675" width="5.988320835390141" height="46.87294314714336" as="geometry"/>
                </mxCell>
            </root>
        </mxGraphModel>
    </diagram>
</mxfile>